<svg version="1.1" id="Layer_1" xmlns="http://www.w3.org/2000/svg" xmlns:xlink="http://www.w3.org/1999/xlink" x="0px" y="0px" viewBox="0 0 500 500" style="width: 168px;" xml:space="preserve" data-imageid="reminder-note-1-27" imageName="Reminder Note 1" class="illustrations_image">
<style type="text/css">
	.st0_reminder-note-1-27{fill:#68E1FD;}
	.st1_reminder-note-1-27{fill:#093F68;}
	.st2_reminder-note-1-27{fill:#FFFFFF;}
	.st3_reminder-note-1-27{fill:#FFC9B0;}
	.st4_reminder-note-1-27{fill:#725858;}
	.st5_reminder-note-1-27{fill:#F56132;}
	.st6_reminder-note-1-27{fill:#FFBC0E;}
	.st7_reminder-note-1-27{fill:#70CC40;}
	.st8_reminder-note-1-27{fill:#DFEAEF;}
</style>
<g id="character_reminder-note-1-27">
	<path class="st0_reminder-note-1-27 targetColor" d="M257.2,323.4l-5.3,41.3c-13.1,0.8-43.5-11.3-59.3-21.7l-2,72.5H65.9c0,0-10.2-98.8,13.4-133.6&#xA;&#9;&#9;c8.5-12.6,24.6-16.9,41.6-17.3c3.2-0.1,6.4,0,9.7,0.1c12.8,0.9,25.4,2.9,37.8,6.1c0,0,11.7,4.7,29.3,13&#xA;&#9;&#9;C217.1,293,242.1,319.4,257.2,323.4z" style="fill: rgb(104, 225, 253);"/>
	<path class="st1_reminder-note-1-27" d="M190.7,417.3H65.9c-0.9,0-1.7-0.7-1.8-1.6c-0.4-4.1-10-99.9,13.7-134.8c7.8-11.5,22.3-17.6,43.1-18.1&#xA;&#9;&#9;c3.2-0.1,6.4,0,9.8,0.1c12.9,0.9,25.7,3,38.2,6.2l0.2,0.1c0.1,0,11.9,4.8,29.4,13.1c9.2,4.4,19.6,12.4,29.6,20.2&#xA;&#9;&#9;c11.3,8.8,22,17.1,29.7,19.2c0.9,0.2,1.5,1.1,1.4,2l-5.3,41.3c-0.1,0.9-0.8,1.5-1.7,1.6c-12.8,0.8-41.1-10.2-57.7-20.3l-1.9,69.3&#xA;&#9;&#9;C192.5,416.5,191.7,417.3,190.7,417.3z M67.6,413.6h121.3l1.9-70.7c0-0.7,0.4-1.3,1-1.6c0.6-0.3,1.3-0.3,1.9,0.1&#xA;&#9;&#9;c14.9,9.9,43.1,21.3,56.7,21.5l4.9-38.2c-8.2-2.8-18.6-10.9-29.5-19.4c-9.9-7.7-20-15.6-28.9-19.8c-16.5-7.8-27.9-12.5-29.1-13&#xA;&#9;&#9;c-12.2-3.2-24.7-5.2-37.3-6.1c-3.2-0.2-6.4-0.2-9.5-0.1c-19.6,0.5-33.1,6-40.2,16.5C59.5,314.3,66.4,400.6,67.6,413.6z"/>
	<rect x="225.2" y="248.6" class="st2_reminder-note-1-27" width="210.3" height="166.8"/>
	<path class="st1_reminder-note-1-27" d="M435.5,417.3H225.2c-1,0-1.8-0.8-1.8-1.8V248.6c0-1,0.8-1.8,1.8-1.8h210.3c1,0,1.8,0.8,1.8,1.8v166.8&#xA;&#9;&#9;C437.4,416.5,436.5,417.3,435.5,417.3z M227,413.6h206.7V250.5H227V413.6z"/>
	<path class="st2_reminder-note-1-27" d="M168.4,270.8L147,371.3l-26.1-106.8c3.2-0.1,6.4,0,9.7,0.1C143.3,265.5,156,267.6,168.4,270.8z"/>
	<path class="st1_reminder-note-1-27" d="M147,373.1c-0.8,0-1.6-0.6-1.8-1.4L119.1,265c-0.1-0.5,0-1.1,0.3-1.5c0.3-0.4,0.9-0.7,1.4-0.7&#xA;&#9;&#9;c3.2-0.1,6.4,0,9.8,0.1c12.9,0.9,25.7,3,38.2,6.2c1,0.2,1.6,1.2,1.4,2.2l-21.3,100.4C148.6,372.5,147.9,373.1,147,373.1L147,373.1z&#xA;&#9;&#9; M123.2,266.3l23.7,96.7l19.3-90.9c-11.7-2.9-23.7-4.8-35.7-5.7C128,266.4,125.6,266.3,123.2,266.3z"/>
	<path class="st3_reminder-note-1-27" d="M136.7,261l21.1,1.9l0,0l-1.5,16.2c-0.2,2.7-2.6,4.7-5.3,4.4h0l-11.3-1c-2.7-0.2-4.7-2.6-4.4-5.3l0,0&#xA;&#9;&#9;L136.7,261L136.7,261z"/>
	<path class="st1_reminder-note-1-27" d="M147.8,285.1c-0.3,0-0.7,0-1,0l-3.2-0.3c-5.9-0.5-10.3-5.8-9.8-11.7l1.1-12.1c0.1-1,0.9-1.7,1.9-1.7&#xA;&#9;&#9;c0,0,0,0,0.1,0l21.1,1.9c1,0.1,1.7,1,1.7,2c0,0,0,0,0,0l-1.1,12.1C158,280.8,153.3,285.1,147.8,285.1z M138.4,263l-1,10.3&#xA;&#9;&#9;c-0.4,3.9,2.5,7.4,6.5,7.8l3.2,0.3l0,0c3.9,0.4,7.4-2.5,7.8-6.5l0.9-10.3L138.4,263z"/>
	<path class="st4_reminder-note-1-27" d="M80.4,201.5c-2.4-4-3.8-10.4-5-14.2c-4-12.8-6.1-26.1-6.4-39.5c-0.3-17.4,4.8-33.4,21.8-40.8&#xA;&#9;&#9;c8.4-3.6,19.1-4.4,25.8,1.9c-1.7-1.6,8-12.1,9.3-13.5c4.1-4.2,8.8-5.9,14.5-7.4c28.5-7.8,58.9,2.1,77.4,25.2c3.4,4.3,6.6,8.7,10,13&#xA;&#9;&#9;c1.5,1.9,1.9,4.4,3.5,6.2c1.9,2.2,4.6,2.6,6.8,4.2c4.2,3.1,5,5.9,5,11.4c0,19.3-16.2,69.1-16.2,69.1l-12.7-3.5&#xA;&#9;&#9;c-5.4-1.5-12.4-0.8-17.9-1.1l-40.9-2.5c-19.8-1.2-39.6,2.1-59.2-1.9c-3.9-0.8-10.6-1.7-13.7-4.5C81.5,203.1,80.9,202.4,80.4,201.5z&#xA;&#9;&#9;"/>
	<path class="st1_reminder-note-1-27" d="M226.8,219.1c-0.2,0-0.3,0-0.5-0.1l-12.9-3.5c-3.4-0.9-7.6-0.9-11.7-0.9c-2.1,0-4,0-5.9-0.1l-41-2.5&#xA;&#9;&#9;c-7.5-0.5-15.1-0.3-22.6-0.1c-12.1,0.3-24.6,0.7-36.9-1.8l-1.7-0.3c-4.1-0.8-9.8-1.9-12.8-4.6c-0.9-0.8-1.6-1.7-2.2-2.7&#xA;&#9;&#9;c-2-3.2-3.2-7.8-4.2-11.5c-0.3-1.2-0.6-2.2-0.9-3.2c-4.1-13-6.2-26.4-6.5-40c-0.4-21.4,7.3-35.7,22.9-42.5&#xA;&#9;&#9;c7.6-3.3,17.8-4.7,25.4,0.3c2.4-4.6,9-11.4,9.1-11.5c4.6-4.7,10.1-6.5,15.3-7.9c15.3-4.1,31.5-3.4,46.4,2.1&#xA;&#9;&#9;c12.9,4.8,24.2,13,32.8,23.8c1.8,2.3,3.6,4.6,5.3,6.9c1.6,2.1,3.1,4.1,4.7,6.1c0.8,1,1.4,2.2,1.9,3.3c0.4,1,0.9,1.9,1.6,2.8&#xA;&#9;&#9;c1,1,2.1,1.7,3.4,2.2c1.1,0.5,2.1,1.1,3.1,1.8c4.9,3.6,5.8,7.2,5.8,12.9c0,19.4-15.6,67.7-16.3,69.7&#xA;&#9;&#9;C228.3,218.6,227.6,219.1,226.8,219.1z M214.5,212c0.8,0.2,3.2,0.9,11.2,3c2.8-8.8,15.6-50.1,15.6-66.9c0-5-0.6-7.3-4.3-10&#xA;&#9;&#9;c-0.8-0.5-1.6-1-2.5-1.4c-1.7-0.7-3.3-1.8-4.6-3.1c-0.9-1.1-1.6-2.3-2.2-3.6c-0.4-0.9-0.8-1.8-1.4-2.6c-1.6-2-3.2-4.1-4.8-6.2&#xA;&#9;&#9;c-1.7-2.2-3.4-4.6-5.2-6.8c-18-22.5-47.7-32.2-75.5-24.6c-5.9,1.6-10.1,3.2-13.6,6.9c-2.9,3-8.3,9.5-8.9,11.5&#xA;&#9;&#9;c0.4,0.9,0.1,2-0.9,2.5c-0.7,0.4-1.6,0.2-2.1-0.4c-6.4-6-16.8-4.5-23.8-1.5c-14.1,6.1-21,19.2-20.7,39c0.3,13.2,2.4,26.4,6.3,39&#xA;&#9;&#9;c0.3,1,0.6,2.1,0.9,3.3c0.9,3.4,2.1,7.7,3.8,10.5l0,0c0.4,0.7,0.9,1.3,1.5,1.9c2.3,2,7.6,3,11.1,3.7l1.8,0.4&#xA;&#9;&#9;c11.9,2.4,24.2,2.1,36.1,1.8c7.5-0.2,15.2-0.4,22.9,0.1l40.9,2.5c1.7,0.1,3.6,0.1,5.6,0.1c4.3,0,8.8,0,12.6,1.1L214.5,212z"/>
	
		<ellipse transform="matrix(9.219681e-02 -0.9957 0.9957 9.219681e-02 -122.6077 278.9506)" class="st3_reminder-note-1-27" cx="91.7" cy="206.7" rx="17.7" ry="20.6"/>
	<path class="st1_reminder-note-1-27" d="M92.2,226.3c-0.8,0-1.6,0-2.4-0.1c-5.7-0.5-11.1-3-15.2-7.1c-3.8-3.8-5.8-9.1-5.3-14.5&#xA;&#9;&#9;c1-10.7,11.8-18.6,24.1-17.4S115,198,114,208.8l0,0C113,218.8,103.5,226.3,92.2,226.3z M91.1,190.8c-9.4,0-17.3,6-18.1,14.2&#xA;&#9;&#9;c-0.3,4.3,1.3,8.5,4.3,11.6c3.4,3.5,8,5.6,12.8,5.9c10.3,1,19.3-5.4,20.1-14.1l0,0c0.8-8.7-6.9-16.6-17.2-17.5&#xA;&#9;&#9;C92.5,190.8,91.8,190.8,91.1,190.8z M112.1,208.6L112.1,208.6z"/>
	
		<ellipse transform="matrix(9.219681e-02 -0.9957 0.9957 9.219681e-02 -25.2947 407.782)" class="st3_reminder-note-1-27" cx="211" cy="217.8" rx="17.7" ry="20.6"/>
	<path class="st1_reminder-note-1-27" d="M211.6,237.3c-0.8,0-1.6,0-2.4-0.1c-5.7-0.5-11.1-3-15.2-7.1c-7.1-6.9-7.3-18.2-0.4-25.3&#xA;&#9;&#9;c0.9-0.9,1.9-1.7,2.9-2.4c9.8-6.6,22.9-5.4,31.3,2.9c3.8,3.8,5.8,9.1,5.3,14.5C232.3,229.8,222.8,237.3,211.6,237.3z M210.4,201.8&#xA;&#9;&#9;c-4.2,0-8.2,1.2-11.6,3.6c-6.6,4.3-8.4,13.1-4.1,19.7c0.6,0.9,1.3,1.7,2.1,2.5c3.4,3.5,8,5.6,12.8,6c10.3,0.9,19.3-5.4,20.1-14.1&#xA;&#9;&#9;c0.3-4.3-1.3-8.6-4.3-11.6C221.3,204.1,216,201.9,210.4,201.8L210.4,201.8z"/>
	<path class="st3_reminder-note-1-27" d="M146.6,269.8L146.6,269.8c-34.1-3.2-59.1-33.3-56-67.4l4.1-44.8c3.1,6.3,15.3,5,35.6-23.5&#xA;&#9;&#9;c62.7,39.4,89,22.6,89,22.6l-5.3,57.2C210.8,247.8,180.6,272.9,146.6,269.8z"/>
	<path class="st1_reminder-note-1-27" d="M152.4,271.9c-2,0-4-0.1-6-0.3c-35.1-3.3-60.9-34.3-57.7-69.4l4.2-44.8c0.1-1,1-1.8,2-1.7&#xA;&#9;&#9;c0.6,0.1,1.2,0.4,1.5,1c0.6,1.2,1.7,2,3.1,2c2.4,0.2,11.8-1.1,29.4-25.8c0.6-0.8,1.6-1,2.5-0.5c61,38.3,86.8,22.8,87,22.6&#xA;&#9;&#9;c0.9-0.5,2-0.3,2.5,0.6c0.2,0.3,0.3,0.8,0.3,1.2l-5.3,57.2C212.7,246.7,185.3,271.8,152.4,271.9L152.4,271.9z M96.2,161.6&#xA;&#9;&#9;l-3.8,40.9c-3.1,33.1,21.3,62.4,54.3,65.4c0,0,0,0,0,0l0,0c33.1,3,62.3-21.3,65.4-54.4l5-54c-8.6,3.2-35.6,8.4-86.4-23.1&#xA;&#9;&#9;c-12.6,17.4-23.8,26.5-31.7,25.9C98.1,162.3,97.1,162,96.2,161.6z"/>
	<circle class="st1_reminder-note-1-27" cx="140.2" cy="201" r="5.7"/>
	<circle class="st1_reminder-note-1-27" cx="189.2" cy="204.5" r="5.7"/>
	<path class="st1_reminder-note-1-27" d="M158,225.1c-2.6-0.1-5.3-0.4-7.8-1.1c-1-0.2-1.6-1.2-1.3-2.2c0.2-1,1.2-1.6,2.2-1.3c0,0,0.1,0,0.1,0&#xA;&#9;&#9;c0.1,0,4.9,1.3,8.4,0.9c0.5-1.6-1.1-7.9-3.6-13.9c-0.4-0.9,0.1-2,1-2.4s2,0.1,2.4,1c1.6,4,5.3,13.8,3.3,17.3&#xA;&#9;&#9;c-0.5,0.9-1.3,1.4-2.3,1.6C159.6,225,158.8,225.1,158,225.1z"/>
	<path class="st1_reminder-note-1-27" d="M145.8,180.7h-0.2l-27.3-1.6c-2-0.1-3.6-1.9-3.5-3.9c0.1-2,1.9-3.6,3.9-3.4l27.3,1.6c2,0.1,3.5,1.9,3.4,3.9&#xA;&#9;&#9;C149.3,179.2,147.7,180.7,145.8,180.7L145.8,180.7z"/>
	<path class="st1_reminder-note-1-27" d="M200.6,186.5c-0.2,0-0.3,0-0.5,0l-27.1-3.6c-2-0.3-3.4-2.1-3.1-4.1s2.1-3.4,4.1-3.1l0,0l27.1,3.6&#xA;&#9;&#9;c2,0.3,3.4,2.1,3.2,4.1C204.1,185.2,202.5,186.5,200.6,186.5L200.6,186.5z"/>
	<path class="st1_reminder-note-1-27" d="M146.2,214.7c-0.2,0-0.5,0-0.8,0l-27.4-2.6c-4.4-0.4-7.6-4.3-7.2-8.7l1.6-17c0.1-1,1-1.7,2-1.7c0,0,0,0,0,0&#xA;&#9;&#9;l39.6,3.6c0.5,0,0.9,0.3,1.2,0.6c0.3,0.4,0.5,0.9,0.4,1.3l-1.6,17C153.7,211.5,150.3,214.6,146.2,214.7L146.2,214.7z M115.8,188.6&#xA;&#9;&#9;l-1.4,15.2c-0.2,2.4,1.5,4.4,3.9,4.7c0,0,0,0,0,0l27.5,2.6l0,0c2.4,0.2,4.4-1.5,4.7-3.9l1.4-15.2L115.8,188.6z"/>
	<path class="st1_reminder-note-1-27" d="M195.4,219.2h-0.7l0,0l-27.5-2.6c-4.4-0.4-7.6-4.3-7.2-8.7l1.6-17c0.1-1,1-1.8,2-1.7c0,0,0,0,0,0l39.7,3.7&#xA;&#9;&#9;c1,0.1,1.7,1,1.7,2l-1.6,17C203,216.1,199.5,219.2,195.4,219.2z M195,215.5c2.4,0.2,4.4-1.5,4.7-3.9l1.4-15.2l-36-3.3l-1.4,15.2&#xA;&#9;&#9;c-0.2,2.4,1.5,4.4,3.9,4.7c0,0,0,0,0,0L195,215.5L195,215.5z"/>
	<path class="st1_reminder-note-1-27" d="M113.6,195h-0.2l-26.9-2.5c-1-0.1-1.7-1-1.7-2s1-1.7,2-1.7l26.9,2.5c1,0,1.8,0.9,1.7,1.9&#xA;&#9;&#9;C115.4,194.3,114.6,195.1,113.6,195L113.6,195z"/>
	<path class="st1_reminder-note-1-27" d="M212.4,204.1h-0.2l-9.8-0.9c-1-0.1-1.8-1-1.7-2c0.1-1,1-1.7,2-1.7c0,0,0,0,0,0l9.8,0.9c1,0,1.8,0.9,1.8,1.9&#xA;&#9;&#9;S213.4,204.1,212.4,204.1L212.4,204.1z"/>
	<path class="st1_reminder-note-1-27" d="M147.5,245.8c-5.3,0.1-10.5-1.1-15.2-3.5c-6.6-3.6-11.1-9.9-13.2-18.6c-0.3-1,0.3-2,1.2-2.3&#xA;&#9;&#9;c1-0.3,2,0.3,2.3,1.2c0,0.1,0,0.1,0,0.2c1.9,7.7,5.7,13.2,11.4,16.3c11.4,6.2,26.6,1,26.8,1c1-0.3,2,0.3,2.3,1.3&#xA;&#9;&#9;c0.2,0.9-0.2,1.8-1.1,2.2C157.4,245.1,152.5,245.8,147.5,245.8z"/>
	<path class="st5_reminder-note-1-27" d="M140.6,281.8h10.7c1.4,0,2.5,1.1,2.5,2.5v7.4c0,1.4-1.1,2.5-2.5,2.5h-10.7c-1.4,0-2.5-1.1-2.5-2.5v-7.4&#xA;&#9;&#9;C138.2,283,139.3,281.8,140.6,281.8z"/>
	<path class="st1_reminder-note-1-27" d="M149.3,296h-6.6c-3.5,0-6.4-2.9-6.4-6.4v-3.2c0-3.5,2.9-6.4,6.4-6.4h6.6c3.5,0,6.4,2.9,6.4,6.4v3.2&#xA;&#9;&#9;C155.7,293.1,152.8,296,149.3,296z M142.7,283.7c-1.5,0-2.7,1.2-2.7,2.7c0,0,0,0,0,0v3.2c0,1.5,1.2,2.7,2.7,2.7l0,0h6.6&#xA;&#9;&#9;c1.5,0,2.7-1.2,2.7-2.7c0,0,0,0,0,0v-3.2c0-1.5-1.2-2.7-2.7-2.7H142.7z"/>
	<polygon class="st5_reminder-note-1-27" points="153,330.9 146,369.1 137.6,334.6 141.5,294.2 150.5,294.2 &#9;"/>
	<path class="st1_reminder-note-1-27" d="M146,370.9c-0.8,0-1.6-0.6-1.8-1.4l-8.4-34.5c0-0.2,0-0.4,0-0.6l3.9-40.5c0.1-0.9,0.9-1.7,1.8-1.7h9&#xA;&#9;&#9;c1,0,1.8,0.7,1.8,1.7l2.5,36.7c0,0.1,0,0.3,0,0.5l-6.9,38.2c-0.2,0.9-0.9,1.5-1.8,1.5H146z M139.4,334.5l6.3,25.8l5.4-29.5&#xA;&#9;&#9;l-2.4-34.8h-5.6L139.4,334.5z"/>
	<path class="st1_reminder-note-1-27" d="M193.8,342.3h-0.2c-1-0.1-1.8-1-1.7-2l3-31.4c0.1-1,1-1.7,2-1.7c0,0,0,0,0,0c1,0.1,1.7,1,1.7,2c0,0,0,0,0,0&#xA;&#9;&#9;l-3,31.4C195.5,341.6,194.7,342.3,193.8,342.3z"/>
	<path class="st3_reminder-note-1-27" d="M211,314.2c0,0,14.4-29.4,20.7-32.4c5.2-2.6,16.1-1.5,19.6,3.8c1.1,1.6,1.3,3.7,0.6,5.5l4.8-2.5&#xA;&#9;&#9;c2.3-1.2,4.9-2.4,7.5-1.8c0.9,0.2,1.7,0.8,2.1,1.7c0.1,0.6,0.1,1.2,0,1.8c-0.8,3.6-3.1,6.7-5.5,9.5c-2,2.3-5.1,4.5-6.5,7.2&#xA;&#9;&#9;c-1.2,2.2-1.4,5.2-2.3,7.6c-1.8,5-4.4,9.8-8.8,13c-3.7,2.7-8.8,3.2-12.4,5.9c-1,0.8-8.2,7.9-8.2,7.9L211,314.2z"/>
	<path class="st1_reminder-note-1-27" d="M222.6,343.3c-0.7,0-1.4-0.4-1.7-1.1c-0.1-0.1-0.1-0.2-0.1-0.3L209.3,315c-0.2-0.5-0.2-1.1,0-1.5&#xA;&#9;&#9;c1.5-3.1,14.9-30,21.5-33.2c5.6-2.8,17.7-1.9,22,4.4c0.7,1,1.1,2.2,1.3,3.4l1.8-1c2.8-1.4,5.7-2.7,8.8-1.9c1.5,0.4,2.8,1.5,3.4,2.9&#xA;&#9;&#9;c0.3,0.9,0.3,1.9,0,2.8c-0.9,4-3.4,7.3-5.9,10.3c-0.8,0.9-1.7,1.8-2.6,2.7c-1.4,1.2-2.6,2.6-3.6,4.2c-0.6,1.3-1,2.6-1.3,4&#xA;&#9;&#9;c-0.2,1.1-0.6,2.3-0.9,3.4c-2.4,6.4-5.5,10.9-9.5,13.8c-2.1,1.4-4.3,2.4-6.6,3.2c-2,0.6-3.9,1.5-5.7,2.7c-0.8,0.6-7.2,6.9-7.9,7.6&#xA;&#9;&#9;c-0.2,0.2-0.4,0.4-0.6,0.5C223.2,343.3,222.9,343.3,222.6,343.3z M213,314.3l10.3,24c0.5-0.5,1.1-1.1,1.8-1.8&#xA;&#9;&#9;c3.9-3.8,4.4-4.2,4.6-4.4c2-1.4,4.3-2.5,6.6-3.2c2-0.6,4-1.5,5.8-2.7c3.4-2.5,6-6.4,8.2-12.1c0.3-1,0.6-1.9,0.8-2.9&#xA;&#9;&#9;c0.3-1.7,0.9-3.3,1.6-4.9c1.2-1.9,2.6-3.7,4.4-5.1c0.8-0.8,1.6-1.5,2.3-2.4c2.2-2.6,4.4-5.5,5.1-8.8c0.1-0.3,0.1-0.6,0.1-0.8&#xA;&#9;&#9;c-0.2-0.3-0.5-0.5-0.8-0.5c-1.8-0.5-4,0.5-6.1,1.6l-4.8,2.5c-0.9,0.5-2,0.1-2.5-0.8c-0.2-0.5-0.3-1-0.1-1.5&#xA;&#9;&#9;c0.5-1.3,0.3-2.7-0.4-3.9c-2.9-4.2-12.6-5.5-17.3-3.2C228.4,285.5,218.6,303.1,213,314.3z"/>
	<path class="st0_reminder-note-1-27 targetColor" d="M91.7,294.2c0,2.1,63.8,58.7,66.2,59.2s53.1-39.1,53.1-39.1l11.7,27.2c0,0-41.2,62.8-72,58.1s-70.3-51-70.3-51&#xA;&#9;&#9;" style="fill: rgb(104, 225, 253);"/>
	<path class="st1_reminder-note-1-27" d="M154,401.7c-1.2,0-2.4-0.1-3.6-0.3c-31.1-4.7-69.8-49.7-71.4-51.6c-0.6-0.8-0.5-2,0.3-2.6&#xA;&#9;&#9;c0.7-0.6,1.8-0.5,2.5,0.2c0.4,0.5,39.5,45.9,69.2,50.4c27.4,4.1,64.7-49.2,69.6-56.5l-10.3-24.1c-49.5,38.7-51.7,38.2-52.7,38&#xA;&#9;&#9;c-2-0.4-20-16.2-34.8-29.4c-32.8-29.2-32.8-30.5-32.8-31.5c0-1,0.8-1.8,1.8-1.8c0.8,0,1.4,0.5,1.7,1.2c3.1,4.3,57.7,53.1,64.7,57.9&#xA;&#9;&#9;c5-2.5,34-24.7,51.8-38.6c0.4-0.4,1-0.5,1.6-0.3c0.5,0.1,1,0.5,1.2,1l11.7,27.2c0.2,0.6,0.2,1.2-0.2,1.7&#xA;&#9;&#9;C222.5,345,185,401.7,154,401.7z M93.5,294.2L93.5,294.2z"/>
	<path class="st3_reminder-note-1-27" d="M259.3,244.2c-2,2-3.3,4.5-4,7.3c-0.7,2.2-0.8,4.5-0.2,6.7c0.7,2.2,2.7,4,5,3.9c0.7,0,1.3-0.2,1.8-0.7&#xA;&#9;&#9;c0.4-0.4,0.7-1,1-1.5l2.6-6c-0.8,2.6-0.6,5.4,0.5,7.9c0.4,1.2,1.6,2,2.8,1.9c4.6-0.1,8.3-3.6,8.8-8.2c-1.4,1.8-0.2,4.7,1.9,5.7&#xA;&#9;&#9;s4.6,0.3,6.6-0.8c4.1-2.4,6.6-7.8,4.4-12c-2.1-4-7.2-5-11.7-5.4C273.3,242.5,263.7,240.1,259.3,244.2z"/>
	<path class="st1_reminder-note-1-27" d="M268.9,265.5c-1,0-2-0.2-2.9-0.8c-0.8-0.6-1.3-1.3-1.7-2.2c-0.1-0.3-0.2-0.5-0.3-0.8c-0.8,1.4-2.2,2.2-3.8,2.2&#xA;&#9;&#9;c-3.3,0.2-6-2.5-6.9-5.1c-0.7-2.6-0.7-5.3,0.2-7.8c0.7-3.1,2.3-5.9,4.5-8.1l0,0c4.1-3.9,11.4-3,17.3-2.2c1.3,0.2,2.5,0.3,3.6,0.4&#xA;&#9;&#9;c2.5,0.2,10.2,0.8,13.2,6.4c2.8,5.2-0.4,11.7-5.1,14.5c-2.8,1.7-5.8,2-8.2,0.9c-0.7-0.3-1.3-0.7-1.8-1.3&#xA;&#9;&#9;C275,264,272.1,265.4,268.9,265.5z M265.5,252c0.2,0,0.4,0,0.6,0.1c0.9,0.3,1.4,1.3,1.1,2.2c-0.6,2.2-0.5,4.6,0.4,6.7&#xA;&#9;&#9;c0.1,0.2,0.2,0.5,0.4,0.7c0.2,0.1,0.5,0.1,0.8,0.1l0,0c2.7-0.1,5.2-1.8,6.3-4.3c-0.1-1.1,0.3-2.3,0.9-3.2c0.6-0.8,1.8-1,2.6-0.4&#xA;&#9;&#9;c0.5,0.4,0.8,1,0.7,1.6c-0.1,0.8-0.2,1.6-0.5,2.4c0.2,0.6,0.7,1.2,1.3,1.5c1.7,0.5,3.5,0.3,4.9-0.7c3.2-1.9,5.5-6.2,3.7-9.6&#xA;&#9;&#9;c-1.4-2.6-4.7-4-10.2-4.4c-1.1-0.1-2.4-0.2-3.8-0.4c-4.8-0.6-11.4-1.5-14.3,1.2l0,0c-1.7,1.8-2.9,4-3.5,6.4&#xA;&#9;&#9;c-0.6,1.8-0.7,3.8-0.2,5.6c0.5,1.4,1.8,2.7,3.2,2.6c0.2,0,0.5-0.1,0.7-0.2c0.2-0.3,0.4-0.6,0.5-0.9l2.6-6&#xA;&#9;&#9;C264.1,252.4,264.8,252,265.5,252z"/>
</g>
<g id="notes_reminder-note-1-27">
	<rect x="298.6" y="279" class="st5_reminder-note-1-27" width="48.1" height="48.1"/>
	<path class="st1_reminder-note-1-27" d="M346.8,329h-48.1c-1,0-1.8-0.8-1.8-1.8c0,0,0,0,0,0V279c0-1,0.8-1.8,1.8-1.8c0,0,0,0,0,0h48.1&#xA;&#9;&#9;c1,0,1.8,0.8,1.8,1.8v48.1C348.6,328.1,347.8,329,346.8,329C346.8,329,346.8,329,346.8,329z M300.5,325.3h44.5v-44.5h-44.5V325.3z"/>
	<rect x="275.8" y="360.3" class="st2_reminder-note-1-27" width="31" height="31"/>
	<path class="st1_reminder-note-1-27" d="M306.9,393.1h-31c-1,0-1.8-0.8-1.8-1.8v-31.1c0-1,0.8-1.8,1.8-1.8h31c1,0,1.8,0.8,1.8,1.8c0,0,0,0,0,0v31&#xA;&#9;&#9;C308.7,392.3,307.9,393.1,306.9,393.1L306.9,393.1z M277.6,389.5H305v-27.4h-27.4L277.6,389.5z"/>
	<rect x="368.7" y="336.2" class="st6_reminder-note-1-27" width="48.1" height="48.1"/>
	<path class="st1_reminder-note-1-27" d="M416.8,386.2h-48.1c-1,0-1.8-0.8-1.8-1.8v-48.1c0-1,0.8-1.8,1.8-1.8h48.1c1,0,1.8,0.8,1.8,1.8v48.1&#xA;&#9;&#9;C418.6,385.3,417.8,386.2,416.8,386.2z M370.5,382.5H415V338h-44.5V382.5z"/>
	<rect x="330.4" y="351.7" class="st7_reminder-note-1-27" width="48.1" height="48.1"/>
	<path class="st1_reminder-note-1-27" d="M378.5,401.7h-48.1c-1,0-1.8-0.8-1.8-1.8v-48.1c0-1,0.8-1.8,1.8-1.8h48.1c1,0,1.8,0.8,1.8,1.8v48.1&#xA;&#9;&#9;C380.3,400.9,379.5,401.7,378.5,401.7z M332.2,398h44.5v-44.4h-44.5V398z"/>
	<rect x="388.7" y="270" class="st2_reminder-note-1-27" width="28.1" height="28.1"/>
	<path class="st8_reminder-note-1-27" d="M416.8,300h-28.1c-1,0-1.8-0.8-1.8-1.8c0,0,0,0,0,0V270c0-1,0.8-1.8,1.8-1.8h28.1c1,0,1.8,0.8,1.8,1.8&#xA;&#9;&#9;c0,0,0,0,0,0v28.1C418.7,299.1,417.9,300,416.8,300C416.8,300,416.8,300,416.8,300z M390.5,296.3H415v-24.5h-24.5V296.3z"/>
	<circle class="st1_reminder-note-1-27" cx="322.7" cy="277.7" r="6.7"/>
	<circle class="st1_reminder-note-1-27" cx="395.3" cy="334.8" r="6.7"/>
	<circle class="st1_reminder-note-1-27" cx="402.7" cy="270" r="5.5"/>
	<circle class="st1_reminder-note-1-27" cx="354.4" cy="350.7" r="6.7"/>
	<circle class="st1_reminder-note-1-27" cx="291.3" cy="360.3" r="5.5"/>
</g>
<path id="line_reminder-note-1-27" class="st1_reminder-note-1-27" d="M453.1,417.3H46.9c-1,0.1-1.9-0.7-2-1.7c-0.1-1,0.7-1.9,1.7-2c0.1,0,0.2,0,0.3,0h406.2&#xA;&#9;c1-0.1,1.9,0.7,2,1.7c0.1,1-0.7,1.9-1.7,2C453.3,417.3,453.2,417.3,453.1,417.3z"/>
</svg>